<svg width="286" height="109" viewBox="0 0 286 109" fill="none" xmlns="http://www.w3.org/2000/svg">
<path d="M3.07516 55.56C3.07516 55.4 3.32849 55.0667 3.83516 54.56C4.34182 54.0533 4.78182 53.5733 5.15516 53.12C5.55516 52.64 5.84849 52.28 6.03516 52.04C6.24849 51.7733 6.38182 51.64 6.43516 51.64C6.59516 51.64 6.67516 51.6933 6.67516 51.8L6.31516 52.36C6.07516 52.7333 5.95516 53.08 5.95516 53.4C5.95516 54.52 6.15516 55.52 6.55516 56.4C6.98182 57.28 7.50182 57.9867 8.11516 58.52C8.75516 59.0267 9.47516 59.4533 10.2752 59.8C11.6352 60.3867 13.0752 60.68 14.5952 60.68C17.6618 60.68 20.1552 59.7067 22.0752 57.76C24.0218 55.8133 24.9952 53.8533 24.9952 51.88C24.9952 49.7467 24.0352 47.44 22.1152 44.96C21.3152 43.92 20.4885 42.8933 19.6352 41.88C17.7152 39.48 16.7552 37.3733 16.7552 35.56C16.7552 33.7467 17.4752 32.0533 18.9152 30.48C20.3818 28.9067 22.1152 27.6933 24.1152 26.84C26.1418 25.9867 28.0618 25.56 29.8752 25.56C32.0618 25.56 33.8218 26.3333 35.1552 27.88C35.7418 28.5733 36.0352 29.0267 36.0352 29.24C36.0352 29.4533 35.9418 29.64 35.7552 29.8C35.4618 30.04 35.0085 30.3733 34.3952 30.8C33.8085 31.2 33.4618 31.4 33.3552 31.4C33.2752 31.4 33.2352 31.32 33.2352 31.16C33.2352 30.2 32.6618 29.32 31.5152 28.52C30.3952 27.72 28.9952 27.32 27.3152 27.32C24.9152 27.32 23.0218 27.9867 21.6352 29.32C20.2485 30.6267 19.5552 32.12 19.5552 33.8C19.5552 35.5067 20.5818 37.5467 22.6352 39.92C23.4885 40.9067 24.3418 41.9067 25.1952 42.92C27.2485 45.3467 28.2752 47.6 28.2752 49.68C28.2752 51.7333 27.3952 53.7733 25.6352 55.8C23.8752 57.8267 21.7285 59.4267 19.1952 60.6C16.6618 61.7733 14.2218 62.36 11.8752 62.36C10.3285 62.36 8.95516 62.1467 7.75516 61.72C6.55516 61.24 5.63516 60.6533 4.99516 59.96C3.71516 58.5733 3.07516 57.1067 3.07516 55.56ZM32.8333 55.88L31.2333 57.16C31.1799 57.16 31.1533 57.1067 31.1533 57C31.1533 56.8933 31.2466 56.7467 31.4333 56.56C31.6199 56.3733 32.1399 55.96 32.9933 55.32C33.6066 53.4 34.5266 51.5867 35.7533 49.88C36.9799 48.1733 38.2333 46.8 39.5133 45.76C40.7933 44.6933 42.0066 43.8667 43.1533 43.28C44.2999 42.6667 45.2066 42.36 45.8733 42.36C47.2599 42.36 47.9533 42.8933 47.9533 43.96C47.9533 44.36 47.8066 44.7733 47.5133 45.2C47.2199 45.6 46.6733 46.1067 45.8733 46.72C45.0999 47.3333 44.3533 47.8933 43.6333 48.4C42.9399 48.88 41.8199 49.64 40.2733 50.68C38.7533 51.72 37.4466 52.6267 36.3533 53.4C35.8733 54.76 35.6333 56.0267 35.6333 57.2C35.6333 58.3467 35.9399 59.2 36.5533 59.76C37.1933 60.32 38.2466 60.6 39.7133 60.6C41.2066 60.6 42.9133 60.08 44.8333 59.04C46.7799 58 48.6199 56.7333 50.3533 55.24C52.0866 53.72 53.3666 52.3333 54.1933 51.08C54.2999 50.92 54.4066 50.84 54.5133 50.84C54.6199 50.84 54.6733 50.88 54.6733 50.96C54.6733 51.04 54.6466 51.1333 54.5933 51.24C51.6333 55.08 48.0599 58.0667 43.8733 60.2C41.8466 61.16 39.8733 61.64 37.9533 61.64C34.3266 61.64 32.5133 60.3867 32.5133 57.88C32.5133 57.5067 32.6199 56.84 32.8333 55.88ZM36.6733 52.68C39.8199 50.4133 42.0599 48.6667 43.3933 47.44C44.7266 46.1867 45.3933 45.2133 45.3933 44.52C45.3933 43.8267 45.0999 43.48 44.5133 43.48C43.2066 43.48 41.8066 44.4267 40.3133 46.32C38.8199 48.1867 37.6066 50.3067 36.6733 52.68ZM64.897 35.08C67.0837 33.2667 68.9904 31.6267 70.617 30.16C72.2704 28.6667 74.017 26.92 75.857 24.92C77.7237 22.92 79.257 21.04 80.457 19.28C81.657 17.4933 82.657 15.56 83.457 13.48C84.257 11.3733 84.657 9.34666 84.657 7.4C84.657 6.94666 84.5637 6.57333 84.377 6.28C84.1904 5.96 83.937 5.8 83.617 5.8C82.417 5.8 80.6304 7.52 78.257 10.96C75.8837 14.3733 73.377 18.6267 70.737 23.72L64.897 35.08ZM60.337 39.48C57.6437 41.4267 55.8037 42.7867 54.817 43.56C53.3237 44.7333 52.5237 45.32 52.417 45.32C52.3104 45.32 52.257 45.2667 52.257 45.16C52.257 45.0533 52.337 44.9467 52.497 44.84C55.7504 42.4933 58.5504 40.36 60.897 38.44L67.857 25.24C68.1504 24.68 68.737 23.52 69.617 21.76C70.5237 19.9733 71.1637 18.72 71.537 18C71.9104 17.28 72.537 16.2 73.417 14.76C74.297 13.32 75.0837 12.1867 75.777 11.36C77.6437 9.06667 79.5637 7.26667 81.537 5.96C83.377 4.57333 85.0304 3.88 86.497 3.88C86.977 3.88 87.3237 4.08 87.537 4.48C87.7504 4.88 87.857 5.26666 87.857 5.64C87.857 10.0667 85.8704 14.7467 81.897 19.68C80.5637 21.3333 79.297 22.8 78.097 24.08C76.9237 25.36 75.4304 26.8133 73.617 28.44C71.377 30.4667 68.257 33.1067 64.257 36.36L58.817 47C57.857 48.92 57.1104 50.4133 56.577 51.48C56.0704 52.52 55.5504 53.7333 55.017 55.12C54.5104 56.5067 54.257 57.5467 54.257 58.24C54.257 58.9333 54.4704 59.5333 54.897 60.04C55.3237 60.52 55.8837 60.76 56.577 60.76C58.257 60.76 60.1237 60.2133 62.177 59.12C64.2304 58.0267 66.1237 56.7333 67.857 55.24C69.5904 53.72 70.8704 52.3333 71.697 51.08C71.8037 50.92 71.9104 50.84 72.017 50.84C72.1237 50.84 72.177 50.88 72.177 50.96C72.177 51.04 72.1504 51.1333 72.097 51.24C70.657 53.16 69.217 54.7467 67.777 56C66.3637 57.2533 64.857 58.3467 63.257 59.28C61.657 60.2133 60.1104 60.88 58.617 61.28C57.1504 61.68 55.8704 61.88 54.777 61.88C53.6837 61.88 52.817 61.5867 52.177 61C51.537 60.44 51.217 59.7333 51.217 58.88C51.217 58.0267 51.3504 57.2 51.617 56.4C51.9104 55.5733 52.1904 54.88 52.457 54.32C52.7504 53.76 53.3237 52.68 54.177 51.08L60.337 39.48ZM67.9189 58.36C54.1589 68.4933 44.5056 76.84 38.9589 83.4C37.1722 85.5333 35.8522 87.24 34.9989 88.52C34.1456 89.8267 33.4789 91.1067 32.9989 92.36C32.5189 93.64 32.2522 94.5333 32.1989 95.04C32.1189 95.5733 32.0789 96.1733 32.0789 96.84C32.0789 97.5333 32.1456 98.3733 32.2789 99.36C32.4122 100.347 32.6256 101.427 32.9189 102.6C33.1856 103.8 33.6256 104.8 34.2389 105.6C34.8522 106.427 35.5722 106.84 36.3989 106.84C37.5456 106.84 39.2256 106 41.4389 104.32C43.6256 102.667 45.2256 101.027 46.2389 99.4C48.4522 95.96 52.0656 89.2533 57.0789 79.28C62.0656 69.3067 65.6789 62.3333 67.9189 58.36ZM85.9189 44.84C86.1589 44.68 86.3056 44.6 86.3589 44.6C86.4389 44.6 86.4789 44.6533 86.4789 44.76C86.4789 44.8667 86.3989 44.9733 86.2389 45.08C84.4789 46.1733 79.9722 49.3733 72.7189 54.68C57.4122 83.1067 48.7989 98.4667 46.8789 100.76C44.9589 103.08 42.6922 105 40.0789 106.52C37.4389 108.067 35.6256 108.84 34.6389 108.84C33.6256 108.84 32.7722 108.413 32.0789 107.56C31.3589 106.76 30.8256 105.693 30.4789 104.36C29.8389 101.933 29.5189 99.3733 29.5189 96.68C29.5189 93.7467 30.7989 90.5467 33.3589 87.08C34.6389 85.3733 35.9989 83.7067 37.4389 82.08C38.8522 80.48 40.5989 78.76 42.6789 76.92C44.7322 75.08 46.5989 73.4533 48.2789 72.04C49.9322 70.6267 51.9189 69.04 54.2389 67.28C56.5322 65.5467 58.3722 64.1733 59.7589 63.16C61.1189 62.1733 62.8256 60.96 64.8789 59.52C66.9056 58.0533 68.2122 57.1067 68.7989 56.68C70.9589 52.1733 74.8789 44.5733 80.5589 33.88C86.2389 23.16 90.4522 15.7467 93.1989 11.64C95.9456 7.53333 98.3856 4.68 100.519 3.08C102.652 1.48 104.959 0.679999 107.439 0.679999C108.292 0.679999 109.012 0.973332 109.599 1.56C110.506 2.52 110.959 3.58667 110.959 4.76C110.959 5.93333 110.826 6.89333 110.559 7.64C110.292 8.36 109.839 9.24 109.199 10.28C108.986 10.7067 108.466 11.1067 107.639 11.48C107.186 11.6667 106.879 11.76 106.719 11.76C106.639 11.76 106.599 11.7333 106.599 11.68C106.599 11.6533 106.612 11.6133 106.639 11.56C107.252 10.5733 107.666 9.73333 107.879 9.04C108.119 8.32 108.239 7.42666 108.239 6.36C108.239 5.29333 107.919 4.34667 107.279 3.52C106.639 2.69333 105.879 2.28 104.999 2.28C104.146 2.28 103.319 2.45333 102.519 2.8C101.746 3.14667 100.879 3.82667 99.9189 4.84C98.9856 5.82666 98.0656 6.96 97.1589 8.24C96.2789 9.49333 95.1722 11.3067 93.8389 13.68C91.3056 18.1333 88.2656 23.8533 84.7189 30.84L73.3589 53.4L85.9189 44.84ZM86.2545 45.08C86.0145 45.24 85.8545 45.32 85.7745 45.32C85.7212 45.32 85.6945 45.2667 85.6945 45.16C85.6945 45.0533 85.7745 44.9467 85.9345 44.84C87.6412 43.6667 89.1079 43.08 90.3345 43.08C92.1479 43.08 93.0545 43.9067 93.0545 45.56C93.0545 46.1467 92.6012 47.24 91.6945 48.84C90.7879 50.4133 89.8812 52.0667 88.9745 53.8C88.0679 55.5333 87.6145 56.8933 87.6145 57.88C87.6145 59.2667 88.5479 59.96 90.4145 59.96C91.3212 59.96 92.5079 59.5333 93.9745 58.68C95.4679 57.8267 96.7745 56.9333 97.8945 56C99.0145 55.0667 100.001 54.1333 100.855 53.2C101.708 52.2667 102.228 51.64 102.415 51.32C102.628 51 102.788 50.84 102.895 50.84C103.001 50.84 103.055 50.88 103.055 50.96C103.055 51.04 103.028 51.1333 102.975 51.24C101.668 53 100.228 54.5733 98.6545 55.96C96.9479 57.5867 95.0812 58.8933 93.0545 59.88C91.0279 60.84 89.4145 61.32 88.2145 61.32C87.0145 61.32 86.0812 61.0533 85.4145 60.52C84.7479 59.9867 84.4145 59.1867 84.4145 58.12C84.4145 57.0533 84.9079 55.6133 85.8945 53.8C86.8812 51.9867 87.8679 50.3067 88.8545 48.76C89.8412 47.1867 90.3345 46.1467 90.3345 45.64C90.3345 45.1067 90.2145 44.6933 89.9745 44.4C89.7612 44.1067 89.4812 43.96 89.1345 43.96C88.3345 43.96 87.3745 44.3333 86.2545 45.08ZM95.2145 34.36C95.2145 33.7733 95.4812 33.16 96.0145 32.52C96.4945 31.88 96.9745 31.56 97.4545 31.56C97.9345 31.56 98.2945 31.7067 98.5345 32C98.7745 32.2667 98.8945 32.6533 98.8945 33.16C98.8945 33.6667 98.6545 34.24 98.1745 34.88C97.6945 35.4933 97.1345 35.8 96.4945 35.8C95.6412 35.8 95.2145 35.32 95.2145 34.36ZM105.215 43.08C105.989 43.08 106.575 43.2933 106.975 43.72C107.402 44.1467 107.615 44.5867 107.615 45.04C107.615 45.4933 107.509 45.9867 107.295 46.52C107.082 47.0533 106.855 47.5467 106.615 48C106.375 48.4533 106.109 48.9333 105.815 49.44C105.549 49.92 105.402 50.2 105.375 50.28C106.975 48.44 108.949 46.68 111.295 45C112.975 43.8267 115.162 42.7067 117.855 41.64C118.175 41.5333 118.375 41.48 118.455 41.48C118.535 41.48 118.575 41.52 118.575 41.6C118.575 41.68 118.549 41.7467 118.495 41.8C118.469 41.8267 118.429 41.8533 118.375 41.88C118.322 41.9067 118.162 41.9867 117.895 42.12C117.655 42.2533 117.109 42.6933 116.255 43.44C115.402 44.16 114.975 44.8 114.975 45.36C114.975 45.92 115.215 46.2 115.695 46.2C116.309 46.2 117.242 45.7467 118.495 44.84C118.735 44.68 118.882 44.6 118.935 44.6C119.015 44.6 119.055 44.6533 119.055 44.76C119.055 44.8667 118.975 44.9733 118.815 45.08C117.722 45.88 116.855 46.4267 116.215 46.72C115.602 47.0133 114.989 47.16 114.375 47.16C113.762 47.16 113.269 47.0533 112.895 46.84C112.522 46.6267 112.335 46.32 112.335 45.92C112.335 45.4933 112.495 45.08 112.815 44.68C111.589 45.3733 110.149 46.52 108.495 48.12C106.842 49.6933 105.189 51.5867 103.535 53.8C101.082 58.3333 99.6955 60.7867 99.3755 61.16C99.0555 61.5333 98.8155 61.72 98.6555 61.72C98.5221 61.72 98.4155 61.68 98.3355 61.6C98.2555 61.5467 98.1488 61.4133 98.0155 61.2C97.9088 60.9867 97.7488 60.7333 97.5355 60.44C97.3221 60.12 97.2155 59.8667 97.2155 59.68C97.2155 59.4667 97.4021 59.08 97.7755 58.52C98.1488 57.9333 98.5755 57.3733 99.0555 56.84C99.5621 56.28 99.9888 55.7733 100.335 55.32C102.522 51.2133 103.855 48.6667 104.335 47.68C104.815 46.6667 105.055 45.9333 105.055 45.48C105.055 45 104.935 44.64 104.695 44.4C104.482 44.16 104.109 44.04 103.575 44.04C103.042 44.04 102.255 44.3867 101.215 45.08C100.975 45.24 100.815 45.32 100.735 45.32C100.682 45.32 100.655 45.2667 100.655 45.16C100.655 45.0533 100.735 44.9467 100.895 44.84C102.602 43.6667 104.042 43.08 105.215 43.08ZM131.473 45L131.233 44.92C131.233 45.48 131.446 46.0133 131.873 46.52C132.326 47 132.859 47.32 133.473 47.48C133.526 47.1333 133.553 46.6933 133.553 46.16C133.553 46.0267 133.553 45.88 133.553 45.72C133.553 44.9733 133.326 44.1867 132.873 43.36C132.419 42.5333 132.059 42.12 131.793 42.12C131.419 42.12 131.233 42.6533 131.233 43.72C131.393 43.7733 131.553 43.88 131.713 44.04C131.873 44.2 131.953 44.3467 131.953 44.48C131.953 44.6133 131.886 44.7333 131.753 44.84C131.619 44.9467 131.526 45 131.473 45ZM133.313 48.2C132.246 48.1467 131.286 47.7333 130.433 46.96C129.606 46.1867 129.153 45.2667 129.073 44.2C127.499 44.2 125.899 44.9333 124.273 46.4C122.673 47.8667 121.379 49.6533 120.393 51.76C119.406 53.8667 118.913 55.8533 118.913 57.72C118.913 58.44 119.126 59.12 119.553 59.76C120.006 60.3733 120.646 60.68 121.473 60.68C123.873 60.68 126.286 59.3467 128.713 56.68C131.166 54.0133 132.699 51.1867 133.313 48.2ZM140.393 44.6C140.473 44.6 140.513 44.6533 140.513 44.76C140.513 44.8667 140.419 44.9733 140.233 45.08C140.073 45.1867 139.739 45.4267 139.233 45.8C138.753 46.1467 138.353 46.4267 138.033 46.64C137.739 46.8267 137.353 47.0533 136.873 47.32C135.939 47.8267 135.019 48.12 134.113 48.2C133.446 51.6133 131.739 54.72 128.993 57.52C126.273 60.32 123.419 61.72 120.433 61.72C117.446 61.72 115.953 60.36 115.953 57.64C115.953 55.4533 116.593 53.24 117.873 51C119.179 48.76 120.859 46.92 122.913 45.48C124.966 44.04 127.019 43.32 129.073 43.32C129.126 42.6533 129.326 42 129.673 41.36C130.019 40.6933 130.513 40.36 131.153 40.36C132.139 40.36 132.913 40.8533 133.473 41.84C134.059 42.8267 134.353 44.0933 134.353 45.64C134.353 46.0667 134.299 46.7067 134.193 47.56C135.393 47.56 137.313 46.6533 139.953 44.84C140.193 44.68 140.339 44.6 140.393 44.6ZM143.478 43.88C142.545 43.88 141.478 44.28 140.278 45.08C140.038 45.24 139.878 45.32 139.798 45.32C139.745 45.32 139.718 45.2667 139.718 45.16C139.718 45.0533 139.798 44.9467 139.958 44.84C141.798 43.4533 143.478 42.76 144.998 42.76C145.665 42.76 146.185 42.9467 146.558 43.32C146.958 43.6933 147.158 44.16 147.158 44.72C147.158 45.28 146.625 46.52 145.558 48.44C149.851 44.76 153.185 42.92 155.558 42.92C156.385 42.92 156.971 43.2133 157.318 43.8C157.691 44.36 157.878 45.08 157.878 45.96C157.878 46.8133 156.971 48.9067 155.158 52.24C153.345 55.5733 152.438 57.72 152.438 58.68C152.438 59.1067 152.558 59.4667 152.798 59.76C153.038 60.0533 153.345 60.2 153.718 60.2C156.091 60.2 158.998 58.7067 162.438 55.72C163.345 54.92 164.211 54.0667 165.038 53.16C165.891 52.2533 166.411 51.64 166.598 51.32C166.811 51 166.971 50.84 167.078 50.84C167.185 50.84 167.238 50.88 167.238 50.96C167.238 51.04 167.211 51.1333 167.158 51.24C166.198 52.52 164.745 54.12 162.798 56.04C160.878 57.9333 158.878 59.3733 156.798 60.36C154.745 61.32 153.025 61.8 151.638 61.8C150.251 61.8 149.558 61.1867 149.558 59.96C149.558 58.8667 150.011 57.4133 150.918 55.6C151.825 53.76 152.731 51.9867 153.638 50.28C154.545 48.5733 154.998 47.2933 154.998 46.44C154.998 45.1067 154.491 44.44 153.478 44.44C152.545 44.44 150.918 45.28 148.598 46.96C146.305 48.6133 145.051 49.64 144.838 50.04L138.998 60.68C138.865 60.8933 138.611 61.0267 138.238 61.08C137.891 61.16 137.518 61.2667 137.118 61.4C136.745 61.56 136.491 61.64 136.358 61.64C136.038 61.64 135.878 61.5067 135.878 61.24C135.878 61.1333 136.651 59.7733 138.198 57.16C142.358 50.0133 144.438 45.9333 144.438 44.92C144.438 44.2267 144.118 43.88 143.478 43.88ZM166.915 43.12C167.075 42.9333 167.195 42.8 167.275 42.72C167.355 42.64 167.462 42.6 167.595 42.6C167.728 42.6 167.795 42.6933 167.795 42.88C167.795 42.9333 167.808 43.0667 167.835 43.28C167.862 43.4933 167.875 43.6933 167.875 43.88C167.902 44.04 167.928 44.2 167.955 44.36C168.435 47.9867 169.315 51.6133 170.595 55.24C171.235 54.3067 172.408 52.4933 174.115 49.8C175.822 47.08 176.755 45.56 176.915 45.24C177.235 44.6 177.475 44.2533 177.635 44.2C178.195 44.04 178.622 43.96 178.915 43.96C179.235 43.96 179.395 44 179.395 44.08C179.395 44.16 179.382 44.2133 179.355 44.24C179.328 44.2667 179.275 44.3067 179.195 44.36C179.142 44.3867 178.995 44.5333 178.755 44.8C178.542 45.0667 177.688 46.4 176.195 48.8C174.702 51.1733 172.995 53.64 171.075 56.2C172.062 58.44 173.128 59.56 174.275 59.56C175.208 59.56 177.075 58.4133 179.875 56.12C182.088 54.2267 183.688 52.5467 184.675 51.08C184.782 50.92 184.888 50.84 184.995 50.84C185.102 50.84 185.155 50.88 185.155 50.96C185.155 51.04 185.128 51.1333 185.075 51.24C183.688 53.1867 182.035 55.0267 180.115 56.76C176.755 59.7467 174.408 61.24 173.075 61.24C172.488 61.24 172.062 61.1067 171.795 60.84L171.235 60.28C171.128 60.1733 170.968 59.9333 170.755 59.56C170.275 58.7067 169.955 58.1467 169.795 57.88C166.275 62.0667 163.635 65 161.875 66.68C157.448 71.1067 153.528 74.6267 150.115 77.24C149.795 77.4533 149.555 77.5867 149.395 77.64C149.235 77.72 148.995 77.76 148.675 77.76C148.328 77.7867 147.848 77.8533 147.235 77.96C146.595 78.0667 146.235 78.12 146.155 78.12C146.075 78.12 146.035 78.0667 146.035 77.96C146.035 77.9333 146.275 77.7467 146.755 77.4C152.728 73.3467 157.502 69.5333 161.075 65.96C164.355 62.7867 167.102 59.8267 169.315 57.08C168.195 54.9733 167.155 52.64 166.195 50.08C165.235 47.52 164.755 45.7733 164.755 44.84C164.755 44.7067 164.995 44.48 165.475 44.16C165.955 43.84 166.275 43.6267 166.435 43.52C166.595 43.4133 166.755 43.28 166.915 43.12Z" fill="white"/>
<path d="M147.18 77.529C124.18 103.529 231.68 54.0289 285.68 77.529" stroke="white"/>
</svg>
