<svg width="26" height="27" viewBox="0 0 26 27" fill="none" xmlns="http://www.w3.org/2000/svg">
<path d="M18.4165 2.6665H7.58317C4.59163 2.6665 2.1665 5.09163 2.1665 8.08317V18.9165C2.1665 21.908 4.59163 24.3332 7.58317 24.3332H18.4165C21.408 24.3332 23.8332 21.908 23.8332 18.9165V8.08317C23.8332 5.09163 21.408 2.6665 18.4165 2.6665Z" stroke="#E6E6E6" stroke-linecap="round" stroke-linejoin="round"/>
<path d="M17.3332 12.8173C17.4669 13.7189 17.3129 14.6397 16.8931 15.4488C16.4733 16.2578 15.8091 16.9139 14.9949 17.3237C14.1808 17.7334 13.2582 17.8761 12.3583 17.7313C11.4584 17.5865 10.6271 17.1616 9.98259 16.5171C9.33809 15.8726 8.91322 15.0413 8.76842 14.1414C8.62362 13.2415 8.76625 12.3189 9.17603 11.5047C9.58582 10.6906 10.2419 10.0264 11.0509 9.6066C11.8599 9.18681 12.7807 9.03281 13.6823 9.16651C14.602 9.30288 15.4534 9.73142 16.1108 10.3888C16.7683 11.0463 17.1968 11.8977 17.3332 12.8173Z" stroke="#E6E6E6" stroke-linecap="round" stroke-linejoin="round"/>
<path d="M18.9585 7.5415H18.9693" stroke="#E6E6E6" stroke-width="1.5" stroke-linecap="round" stroke-linejoin="round"/>
</svg>
