<svg width="26" height="27" viewBox="0 0 26 27" fill="none" xmlns="http://www.w3.org/2000/svg">
<path d="M17.3335 9.1665C19.0574 9.1665 20.7107 9.85132 21.9297 11.0703C23.1487 12.2893 23.8335 13.9426 23.8335 15.6665V23.2498H19.5002V15.6665C19.5002 15.0919 19.2719 14.5408 18.8656 14.1344C18.4592 13.7281 17.9081 13.4998 17.3335 13.4998C16.7589 13.4998 16.2078 13.7281 15.8014 14.1344C15.3951 14.5408 15.1668 15.0919 15.1668 15.6665V23.2498H10.8335V15.6665C10.8335 13.9426 11.5183 12.2893 12.7373 11.0703C13.9563 9.85132 15.6096 9.1665 17.3335 9.1665Z" stroke="#E6E6E6" stroke-linecap="round" stroke-linejoin="round"/>
<path d="M6.49984 10.25H2.1665V23.25H6.49984V10.25Z" stroke="#E6E6E6" stroke-linecap="round" stroke-linejoin="round"/>
<path d="M4.33317 6.99984C5.52979 6.99984 6.49984 6.02979 6.49984 4.83317C6.49984 3.63655 5.52979 2.6665 4.33317 2.6665C3.13655 2.6665 2.1665 3.63655 2.1665 4.83317C2.1665 6.02979 3.13655 6.99984 4.33317 6.99984Z" stroke="#E6E6E6" stroke-linecap="round" stroke-linejoin="round"/>
</svg>
