<svg width="29" height="29" viewBox="0 0 29 29" fill="none" xmlns="http://www.w3.org/2000/svg">
<path d="M25.375 12.0835C25.375 20.5418 14.5 27.7918 14.5 27.7918C14.5 27.7918 3.625 20.5418 3.625 12.0835C3.625 9.19927 4.77076 6.43317 6.81021 4.39371C8.84967 2.35425 11.6158 1.2085 14.5 1.2085C17.3842 1.2085 20.1503 2.35425 22.1898 4.39371C24.2292 6.43317 25.375 9.19927 25.375 12.0835Z" stroke="#FFD429" stroke-width="2" stroke-linecap="round" stroke-linejoin="round"/>
<path d="M14.5 15.7085C16.502 15.7085 18.125 14.0855 18.125 12.0835C18.125 10.0815 16.502 8.4585 14.5 8.4585C12.498 8.4585 10.875 10.0815 10.875 12.0835C10.875 14.0855 12.498 15.7085 14.5 15.7085Z" stroke="#FFD429" stroke-width="2" stroke-linecap="round" stroke-linejoin="round"/>
</svg>
