<svg width="20" height="20" viewBox="0 0 20 20" fill="none" xmlns="http://www.w3.org/2000/svg">
<path d="M8.73306 6.75186C8.81155 6.74306 8.9809 6.7581 9.38358 6.95606C9.78108 7.15147 10.2894 7.46335 11.028 7.91788C11.7662 8.37221 12.2742 8.68578 12.6325 8.95561C12.9909 9.22552 13.1044 9.38429 13.1487 9.49039C13.2838 9.81382 13.2838 10.1862 13.1487 10.5096C13.1044 10.6157 12.9909 10.7745 12.6325 11.0444C12.2742 11.3142 11.7662 11.6278 11.028 12.0821C10.2894 12.5366 9.78108 12.8485 9.38358 13.0439C8.9809 13.2419 8.81155 13.2569 8.73306 13.2481C8.44154 13.2155 8.16131 13.0508 7.97155 12.7724C7.90747 12.6784 7.83227 12.4862 7.79121 12.0092C7.75066 11.538 7.75 10.9068 7.75 10C7.75 9.09324 7.75066 8.46196 7.79121 7.9908C7.83227 7.51375 7.90747 7.32161 7.97155 7.22759C8.16131 6.94918 8.44154 6.78452 8.73306 6.75186Z" fill="#2D264B"/>
<path fill-rule="evenodd" clip-rule="evenodd" d="M9.95475 0.25H10.0452C11.8818 0.249992 13.3214 0.249985 14.4635 0.373728C15.6291 0.500006 16.5734 0.762324 17.3798 1.34815C17.8679 1.70281 18.2972 2.13209 18.6518 2.62024C19.2377 3.42656 19.5 4.37094 19.6263 5.53648C19.75 6.67859 19.75 8.11816 19.75 9.95465V10.0453C19.75 11.8818 19.75 13.3214 19.6263 14.4635C19.5 15.6291 19.2377 16.5734 18.6518 17.3798C18.2972 17.8679 17.8679 18.2972 17.3798 18.6518C16.5734 19.2377 15.6291 19.5 14.4635 19.6263C13.3214 19.75 11.8818 19.75 10.0453 19.75H9.95473C8.11824 19.75 6.67859 19.75 5.53648 19.6263C4.37094 19.5 3.42656 19.2377 2.62024 18.6518C2.13209 18.2972 1.70281 17.8679 1.34815 17.3798C0.762324 16.5734 0.500006 15.6291 0.373728 14.4635C0.249985 13.3214 0.249992 11.8818 0.25 10.0452V9.95475C0.249992 8.11821 0.249985 6.67861 0.373728 5.53648C0.500006 4.37094 0.762324 3.42656 1.34815 2.62024C1.70281 2.13209 2.13209 1.70281 2.62024 1.34815C3.42656 0.762324 4.37094 0.500006 5.53648 0.373728C6.67861 0.249985 8.11821 0.249992 9.95475 0.25ZM11.7807 6.61986C11.0837 6.19089 10.5146 5.84061 10.0453 5.60993C9.5738 5.37812 9.08281 5.20329 8.56605 5.26118C7.81915 5.34486 7.15604 5.76076 6.73207 6.38278C6.44434 6.80493 6.34363 7.31731 6.29674 7.86218C6.24998 8.40543 6.24999 9.10168 6.25 9.96407V10.0359C6.24999 10.8983 6.24998 11.5946 6.29674 12.1378C6.34363 12.6827 6.44434 13.1951 6.73207 13.6172C7.15604 14.2392 7.81915 14.6551 8.56605 14.7388C9.08281 14.7967 9.5738 14.6219 10.0453 14.3901C10.5146 14.1594 11.0837 13.8091 11.7807 13.3802L11.8468 13.3395C12.5445 12.9101 13.1134 12.56 13.5349 12.2426C13.9627 11.9204 14.3337 11.5645 14.5328 11.0877C14.8224 10.3944 14.8224 9.60563 14.5328 8.91227C14.3337 8.43552 13.9627 8.07963 13.5349 7.7574C13.1134 7.44 12.5445 7.08987 11.8468 6.66049L11.7807 6.61986Z" fill="#2D264B"/>
</svg>
