<svg width="24" height="25" viewBox="0 0 24 25" fill="none" xmlns="http://www.w3.org/2000/svg">
<path d="M23 3.4998C22.0424 4.17528 20.9821 4.69191 19.86 5.0298C19.2577 4.33731 18.4573 3.84649 17.567 3.62373C16.6767 3.40096 15.7395 3.457 14.8821 3.78426C14.0247 4.11151 13.2884 4.6942 12.773 5.45352C12.2575 6.21283 11.9877 7.11214 12 8.0298V9.0298C10.2426 9.07537 8.50127 8.68561 6.93101 7.89525C5.36074 7.10488 4.01032 5.93844 3 4.4998C3 4.4998 -1 13.4998 8 17.4998C5.94053 18.8978 3.48716 19.5987 1 19.4998C10 24.4998 21 19.4998 21 7.9998C20.9991 7.72126 20.9723 7.4434 20.92 7.1698C21.9406 6.1633 22.6608 4.89251 23 3.4998Z" stroke="#E6E6E6" stroke-linecap="round" stroke-linejoin="round"/>
</svg>
